<svg width="174" height="36" viewBox="0 0 174 36" fill="none" xmlns="http://www.w3.org/2000/svg">
<g filter="url(#filter0_i_4_3)">
<path fill-rule="evenodd" clip-rule="evenodd" d="M33.76 0H41.9994V8.23938H33.76V0Z" fill="#58C7B3"/>
</g>
<g filter="url(#filter1_i_4_3)">
<path d="M22.6229 30V7.86888H10.8197V0H30.4918V30H22.6229Z" fill="url(#paint0_linear_4_3)"/>
</g>
<g filter="url(#filter2_i_4_3)">
<path d="M7.86888 0V22.1311H19.6721V30H0V0H7.86888Z" fill="url(#paint1_linear_4_3)"/>
</g>
<path d="M106.214 15.015H119.96V18.6639H115.508V30.0007H110.666V18.6639H106.214V15.015Z" fill="url(#paint2_linear_4_3)"/>
<path d="M121.808 19.077H125.847V21.0965C126.168 20.2397 126.65 19.6583 127.293 19.3524C127.936 19.0311 128.808 18.8704 129.909 18.8704V22.3128C128.486 22.3128 127.522 22.5423 127.018 23.0012C126.513 23.4602 126.26 24.3093 126.26 25.5486V30.0007H121.808V19.077Z" fill="url(#paint3_linear_4_3)"/>
<path d="M131.542 22.3128C131.542 21.2265 131.993 20.3698 132.896 19.7425C133.936 19.0234 135.504 18.6639 137.6 18.6639C139.681 18.6639 141.18 19.0158 142.098 19.7195C142.878 20.3162 143.268 21.1806 143.268 22.3128V28.3484C143.268 28.6544 143.307 28.8915 143.383 29.0598C143.475 29.2281 143.705 29.404 144.072 29.5876V30.0007H139.229L138.816 28.7844C138.495 29.2128 137.975 29.5647 137.256 29.84C136.552 30.1154 135.795 30.2531 134.984 30.2531C134.25 30.2531 133.569 30.1231 132.941 29.863C132.314 29.6029 131.848 29.2051 131.542 28.6696C131.434 28.5014 131.335 28.2795 131.243 28.0041C131.167 27.7134 131.128 27.4075 131.128 27.0862C131.128 26.6731 131.182 26.283 131.289 25.9158C131.412 25.5333 131.626 25.1432 131.932 24.7454C132.406 24.1028 133.37 23.6744 134.823 23.4602C136.889 23.1542 137.967 22.9859 138.059 22.9554C138.304 22.9248 138.495 22.8253 138.633 22.657C138.786 22.4734 138.862 22.2745 138.862 22.0603C138.862 21.8156 138.755 21.5937 138.541 21.3948C138.327 21.1959 138.013 21.0965 137.6 21.0965C137.003 21.0965 136.583 21.1959 136.338 21.3948C136.108 21.5784 135.994 21.8844 135.994 22.3128H131.542ZM138.816 24.7454C138.617 24.8678 138.12 25.0743 137.325 25.365C136.193 25.7934 135.626 26.2983 135.626 26.8796C135.626 27.155 135.749 27.3769 135.994 27.5451C136.254 27.6981 136.56 27.7746 136.912 27.7746C137.111 27.7746 137.317 27.7364 137.531 27.6599C137.761 27.5834 137.937 27.484 138.059 27.3616C138.304 27.1168 138.495 26.7878 138.633 26.3748C138.786 25.9464 138.862 25.5486 138.862 25.1814L138.816 24.7454Z" fill="url(#paint4_linear_4_3)"/>
<path d="M157.86 15.015V30.0007H153.821V28.3713C153.438 28.968 152.926 29.4423 152.283 29.7941C151.641 30.146 150.967 30.322 150.264 30.322C149.024 30.322 147.992 29.8553 147.166 28.9221C146.202 27.8358 145.72 26.3059 145.72 24.3323C145.72 22.4811 146.202 21.0659 147.166 20.0867C147.992 19.2453 149.024 18.8245 150.264 18.8245C150.921 18.8245 151.533 18.9546 152.1 19.2147C152.666 19.4748 153.102 19.8343 153.408 20.2933V15.015H157.86ZM151.801 21.8997C151.22 21.8997 150.769 22.1598 150.447 22.68C150.126 23.2001 149.965 23.8198 149.965 24.5388C149.965 25.2273 150.126 25.8393 150.447 26.3748C150.784 26.9102 151.235 27.178 151.801 27.178C152.505 27.178 153.04 26.8643 153.408 26.2371C153.683 25.7628 153.821 25.1967 153.821 24.5388C153.821 23.7127 153.691 23.093 153.431 22.68C153.109 22.1598 152.566 21.8997 151.801 21.8997Z" fill="url(#paint5_linear_4_3)"/>
<path d="M164.185 23.116H167.788C167.635 22.504 167.405 22.0833 167.099 21.8538C166.809 21.6243 166.434 21.5096 165.975 21.5096C165.531 21.5096 165.164 21.632 164.873 21.8767C164.582 22.1062 164.353 22.5193 164.185 23.116ZM163.932 25.1355C164.024 25.9464 164.284 26.5736 164.713 27.0173C165.095 27.4151 165.539 27.614 166.044 27.614C166.411 27.614 166.74 27.5069 167.03 27.2927C167.321 27.0632 167.505 26.7496 167.581 26.3518H172.033C171.773 27.3922 171.222 28.2719 170.381 28.9909C169.264 29.9395 167.795 30.4138 165.975 30.4138C163.925 30.4138 162.295 29.8018 161.087 28.5779C160 27.4763 159.457 26.13 159.457 24.5388C159.457 22.9477 160 21.6014 161.087 20.4998C162.295 19.2759 163.925 18.6639 165.975 18.6639C168.132 18.6639 169.761 19.2912 170.863 20.5457C171.811 21.6167 172.286 23.0165 172.286 24.7454V25.1355H163.932Z" fill="url(#paint6_linear_4_3)"/>
<path d="M37.14 15.015H42.0052V26.3518H48.8899V30.0007H37.14V15.015Z" fill="white"/>
<path d="M62.4513 30.0007H58.4123V28.3713C58.0757 28.9833 57.5326 29.4652 56.7829 29.8171C56.0485 30.1537 55.253 30.322 54.3962 30.322C53.2794 30.322 52.3461 30.0389 51.5964 29.4729C50.7397 28.8303 50.3113 27.9276 50.3113 26.7649V19.077H54.7634V25.1355C54.7634 25.7016 54.924 26.1529 55.2453 26.4895C55.5666 26.8108 55.9491 26.9714 56.3928 26.9714C56.8211 26.9714 57.196 26.8108 57.5173 26.4895C57.8386 26.1682 57.9992 25.7169 57.9992 25.1355V19.077H62.4513V30.0007Z" fill="white"/>
<path d="M72.1316 23.116C72.0246 22.657 71.8486 22.2898 71.6038 22.0144C71.2978 21.6779 70.9001 21.5096 70.4105 21.5096C69.7832 21.5096 69.2936 21.8156 68.9417 22.4275C68.5899 23.0242 68.4139 23.728 68.4139 24.5388C68.4139 25.3497 68.5822 26.0611 68.9188 26.6731C69.2707 27.2698 69.7679 27.5681 70.4105 27.5681C70.9001 27.5681 71.3055 27.3998 71.6268 27.0632C71.8716 26.8031 72.0551 26.4359 72.1775 25.9617H76.469C76.2701 27.5222 75.6199 28.6696 74.5183 29.404C73.5086 30.0772 72.1393 30.4138 70.4105 30.4138C68.3604 30.4138 66.7386 29.8018 65.5453 28.5779C64.459 27.461 63.9159 26.1147 63.9159 24.5388C63.9159 22.9477 64.4514 21.6014 65.5223 20.4998C66.7157 19.2759 68.3451 18.6639 70.4105 18.6639C71.971 18.6639 73.2791 19.0005 74.3348 19.6736C75.5587 20.4539 76.2701 21.6014 76.469 23.116H72.1316Z" fill="white"/>
<path d="M78.1769 15.015H82.629V22.3128L85.4517 19.077H90.3169L86.255 23.116L90.7071 30.0007H85.4517L83.4322 26.3518L82.629 27.178V30.0007H78.1769V15.015Z" fill="white"/>
<path d="M92.0397 19.077H96.4918L98.1212 25.5486L99.7276 19.077H104.18L99.9801 30.8039C99.567 31.8902 98.955 32.724 98.1441 33.3053C97.3333 33.8867 96.4612 34.1774 95.528 34.1774C94.763 34.1774 94.0057 34.0015 93.256 33.6496V30.8039C93.8068 31.1099 94.3193 31.2629 94.7936 31.2629C95.1455 31.2629 95.4285 31.1558 95.6427 30.9416C95.8569 30.7274 95.964 30.452 95.964 30.1154C95.964 29.8706 95.8722 29.5647 95.6886 29.1975L92.0397 19.077Z" fill="white"/>
<defs>
<filter id="filter0_i_4_3" x="33.76" y="0" width="8.23938" height="11.2394" filterUnits="userSpaceOnUse" color-interpolation-filters="sRGB">
<feFlood flood-opacity="0" result="BackgroundImageFix"/>
<feBlend mode="normal" in="SourceGraphic" in2="BackgroundImageFix" result="shape"/>
<feColorMatrix in="SourceAlpha" type="matrix" values="0 0 0 0 0 0 0 0 0 0 0 0 0 0 0 0 0 0 127 0" result="hardAlpha"/>
<feOffset dy="3"/>
<feGaussianBlur stdDeviation="3.5"/>
<feComposite in2="hardAlpha" operator="arithmetic" k2="-1" k3="1"/>
<feColorMatrix type="matrix" values="0 0 0 0 0 0 0 0 0 0.0666667 0 0 0 0 0.0666667 0 0 0 0.39 0"/>
<feBlend mode="normal" in2="shape" result="effect1_innerShadow_4_3"/>
</filter>
<filter id="filter1_i_4_3" x="10.8197" y="0" width="19.6721" height="33" filterUnits="userSpaceOnUse" color-interpolation-filters="sRGB">
<feFlood flood-opacity="0" result="BackgroundImageFix"/>
<feBlend mode="normal" in="SourceGraphic" in2="BackgroundImageFix" result="shape"/>
<feColorMatrix in="SourceAlpha" type="matrix" values="0 0 0 0 0 0 0 0 0 0 0 0 0 0 0 0 0 0 127 0" result="hardAlpha"/>
<feOffset dy="3"/>
<feGaussianBlur stdDeviation="3.5"/>
<feComposite in2="hardAlpha" operator="arithmetic" k2="-1" k3="1"/>
<feColorMatrix type="matrix" values="0 0 0 0 0 0 0 0 0 0.0666667 0 0 0 0 0.0666667 0 0 0 0.39 0"/>
<feBlend mode="normal" in2="shape" result="effect1_innerShadow_4_3"/>
</filter>
<filter id="filter2_i_4_3" x="0" y="0" width="19.6721" height="33" filterUnits="userSpaceOnUse" color-interpolation-filters="sRGB">
<feFlood flood-opacity="0" result="BackgroundImageFix"/>
<feBlend mode="normal" in="SourceGraphic" in2="BackgroundImageFix" result="shape"/>
<feColorMatrix in="SourceAlpha" type="matrix" values="0 0 0 0 0 0 0 0 0 0 0 0 0 0 0 0 0 0 127 0" result="hardAlpha"/>
<feOffset dy="3"/>
<feGaussianBlur stdDeviation="3.5"/>
<feComposite in2="hardAlpha" operator="arithmetic" k2="-1" k3="1"/>
<feColorMatrix type="matrix" values="0 0 0 0 0 0 0 0 0 0.0666667 0 0 0 0 0.0666667 0 0 0 0.39 0"/>
<feBlend mode="normal" in2="shape" result="effect1_innerShadow_4_3"/>
</filter>
<linearGradient id="paint0_linear_4_3" x1="16.5712" y1="28.689" x2="4.55669" y2="2.92005" gradientUnits="userSpaceOnUse">
<stop stop-color="#B68C18"/>
<stop offset="0.5" stop-color="#E6D9A0"/>
<stop offset="0.76" stop-color="#D3AE40"/>
<stop offset="1" stop-color="#B29D60"/>
</linearGradient>
<linearGradient id="paint1_linear_4_3" x1="5.75153" y1="28.689" x2="-6.26298" y2="2.92005" gradientUnits="userSpaceOnUse">
<stop stop-color="#B68C18"/>
<stop offset="0.5" stop-color="#E6D9A0"/>
<stop offset="0.76" stop-color="#D3AE40"/>
<stop offset="1" stop-color="#B29D60"/>
</linearGradient>
<linearGradient id="paint2_linear_4_3" x1="139.25" y1="15.015" x2="139.25" y2="30.4138" gradientUnits="userSpaceOnUse">
<stop stop-color="#CEAE56"/>
<stop offset="0.505208" stop-color="#FDEEA9"/>
<stop offset="1" stop-color="#C7A84D"/>
</linearGradient>
<linearGradient id="paint3_linear_4_3" x1="139.25" y1="15.015" x2="139.25" y2="30.4138" gradientUnits="userSpaceOnUse">
<stop stop-color="#CEAE56"/>
<stop offset="0.505208" stop-color="#FDEEA9"/>
<stop offset="1" stop-color="#C7A84D"/>
</linearGradient>
<linearGradient id="paint4_linear_4_3" x1="139.25" y1="15.015" x2="139.25" y2="30.4138" gradientUnits="userSpaceOnUse">
<stop stop-color="#CEAE56"/>
<stop offset="0.505208" stop-color="#FDEEA9"/>
<stop offset="1" stop-color="#C7A84D"/>
</linearGradient>
<linearGradient id="paint5_linear_4_3" x1="139.25" y1="15.015" x2="139.25" y2="30.4138" gradientUnits="userSpaceOnUse">
<stop stop-color="#CEAE56"/>
<stop offset="0.505208" stop-color="#FDEEA9"/>
<stop offset="1" stop-color="#C7A84D"/>
</linearGradient>
<linearGradient id="paint6_linear_4_3" x1="139.25" y1="15.015" x2="139.25" y2="30.4138" gradientUnits="userSpaceOnUse">
<stop stop-color="#CEAE56"/>
<stop offset="0.505208" stop-color="#FDEEA9"/>
<stop offset="1" stop-color="#C7A84D"/>
</linearGradient>
</defs>
</svg>
