<svg width="264" height="334" viewBox="0 0 264 334" fill="none" xmlns="http://www.w3.org/2000/svg">
<path d="M186.45 81.1952V122.445C186.45 127.002 182.756 130.695 178.2 130.695H168.3" stroke="#D1D7E4" stroke-width="2"/>
<path d="M221.1 13.5452H133.65C130.005 13.5452 127.05 16.5001 127.05 20.1452V74.5952C127.05 78.2402 130.005 81.1952 133.65 81.1952H221.1C224.745 81.1952 227.7 78.2402 227.7 74.5952V20.1452C227.7 16.5001 224.745 13.5452 221.1 13.5452Z" fill="#E7EBF4"/>
<path d="M130.35 20.1452C130.35 18.3226 131.827 16.8452 133.65 16.8452H221.1C222.923 16.8452 224.4 18.3226 224.4 20.1452V71.2952C224.4 72.2065 223.661 72.9452 222.75 72.9452H132C131.089 72.9452 130.35 72.2065 130.35 71.2952V20.1452Z" fill="white"/>
<path d="M130.35 52.9802L136.385 55.4694C137.777 56.0436 139.382 55.6022 140.285 54.3966L143.371 50.275C144.735 48.4536 147.49 48.5265 148.755 50.4178L153.339 57.2684C154.651 59.2289 157.537 59.2197 158.836 57.2509L161.655 52.9802L168.505 44.0404C169.559 42.6636 171.501 42.3384 172.946 43.296L180.63 48.385C180.771 48.4784 180.904 48.5823 181.03 48.696L187.679 54.7498C187.833 54.8898 187.999 55.0148 188.178 55.1234L192.583 57.8231C194.35 58.9059 196.667 58.1109 197.396 56.1712L199.769 49.8616C200.369 48.2681 202.384 47.7778 203.648 48.9176C204.819 49.9734 206.672 49.6428 207.405 48.2469L207.86 47.3819C209.093 45.036 212.487 45.1434 213.569 47.5626L215.472 51.8166C216.589 54.3152 220.087 54.4459 221.387 52.0376L222.75 49.5152" stroke="#51BDAC" stroke-width="2"/>
<path d="M122.1 78.7951C122.1 78.2981 122.503 77.8952 123 77.8952H231.751C232.247 77.8952 232.65 78.2981 232.65 78.7951C232.65 80.1206 231.576 81.1952 230.249 81.1952H124.5C123.174 81.1952 122.1 80.1206 122.1 78.7951Z" fill="#D1D7E4"/>
<path d="M156.75 92.7452H99C91.7098 92.7452 85.8 98.6551 85.8 105.945V160.395C85.8 167.685 91.7098 173.595 99 173.595H156.75C164.04 173.595 169.95 167.685 169.95 160.395V105.945C169.95 98.6551 164.04 92.7452 156.75 92.7452Z" fill="#D1D7E4"/>
<path d="M130.35 156.27V192.57" stroke="#D1D7E4" stroke-width="2" stroke-linecap="round"/>
<path d="M95.7 130.695H54.45" stroke="#D1D7E4" stroke-width="2"/>
<path d="M156.75 92.7452H99C91.7098 92.7452 85.8 98.6551 85.8 105.945V137.295C85.8 144.585 91.7098 150.495 99 150.495H156.75C164.04 150.495 169.95 144.585 169.95 137.295V105.945C169.95 98.6551 164.04 92.7452 156.75 92.7452Z" fill="#E7EBF4"/>
<path d="M59.4 107.595H36.3C34.4775 107.595 33 109.073 33 110.895V153.795C33 155.618 34.4775 157.095 36.3 157.095H59.4C61.2225 157.095 62.7 155.618 62.7 153.795V110.895C62.7 109.073 61.2225 107.595 59.4 107.595Z" fill="#D1D7E4"/>
<path d="M56.1 110.895H39.6C37.7775 110.895 36.3 112.373 36.3 114.195V150.495C36.3 152.318 37.7775 153.795 39.6 153.795H56.1C57.9225 153.795 59.4 152.318 59.4 150.495V114.195C59.4 112.373 57.9225 110.895 56.1 110.895Z" fill="white"/>
<path d="M59.4 135.191L58.4065 135.629C57.8393 135.878 57.1748 135.693 56.8187 135.185C56.2845 134.424 55.1473 134.454 54.6531 135.241L54.5662 135.38C54.0121 136.263 52.7236 136.259 52.175 135.372L52.0629 135.191L51.6425 134.606C50.7434 133.355 49.0033 133.062 47.7447 133.951C47.6258 134.035 47.5136 134.129 47.409 134.23L46.0231 135.576C45.9474 135.649 45.8647 135.715 45.7763 135.773L45.3522 136.05C44.6719 136.495 43.755 136.185 43.4848 135.418L43.1216 134.388C42.9886 134.011 42.5099 133.898 42.2215 134.175C41.9531 134.433 41.5112 134.356 41.3467 134.021L41.2347 133.794C40.9558 133.228 40.1405 133.253 39.8965 133.835L39.4749 134.84C39.1482 135.619 38.1523 135.846 37.5205 135.285L36.3 134.201" stroke="#51BDAC"/>
<path d="M51.975 107.595H43.725C42.3581 107.595 41.25 108.703 41.25 110.07C41.25 111.437 42.3581 112.545 43.725 112.545H51.975C53.3419 112.545 54.45 111.437 54.45 110.07C54.45 108.703 53.3419 107.595 51.975 107.595Z" fill="#D1D7E4"/>
<path d="M155.1 302.295H115.5V318.795H155.1V302.295Z" fill="#D1D7E4"/>
<path d="M202.95 196.695H67.65C60.3598 196.695 54.45 202.605 54.45 209.895V297.345C54.45 304.635 60.3598 310.545 67.65 310.545H202.95C210.24 310.545 216.15 304.635 216.15 297.345V209.895C216.15 202.605 210.24 196.695 202.95 196.695Z" fill="#E7EBF4"/>
<path d="M159.225 318.795H109.725C108.358 318.795 107.25 319.903 107.25 321.27C107.25 322.637 108.358 323.745 109.725 323.745H159.225C160.592 323.745 161.7 322.637 161.7 321.27C161.7 319.903 160.592 318.795 159.225 318.795Z" fill="#E7EBF4"/>
<path d="M59.4 211.545C59.4 206.077 63.8324 201.645 69.3 201.645H201.3C206.768 201.645 211.2 206.077 211.2 211.545V292.395C211.2 293.306 210.461 294.045 209.55 294.045H61.05C60.1387 294.045 59.4 293.306 59.4 292.395V211.545Z" fill="white"/>
<path d="M59.4 260.22L70.7271 264.985C72.1342 265.578 73.7637 265.127 74.667 263.896L82.4259 253.326C83.7878 251.472 86.5829 251.544 87.8453 253.47L98.6967 270.009C100.005 272.004 102.931 271.994 104.227 269.993L110.55 260.22L122.918 243.755C123.974 242.349 125.947 242.017 127.404 243.002L141.689 252.653C141.829 252.747 141.963 252.853 142.087 252.968L153.22 263.307C153.373 263.449 153.539 263.576 153.716 263.687L163.209 269.62C164.984 270.729 167.33 269.927 168.054 267.963L173.161 254.117C173.973 251.914 176.761 251.239 178.49 252.83L179.754 253.991C181.356 255.465 183.924 255.009 184.92 253.072L187.841 247.406C189.113 244.936 192.68 245.048 193.796 247.593L200.208 262.215C201.317 264.743 204.854 264.873 206.146 262.433L210.375 254.445" stroke="#51BDAC" stroke-width="2"/>
<g filter="url(#filter0_d_2_197)">
<path d="M72.6 28.3952H46.2C41.6437 28.3952 37.95 32.0889 37.95 36.6452V54.7952C37.95 59.3516 41.6437 63.0452 46.2 63.0452H72.6C77.1564 63.0452 80.85 59.3516 80.85 54.7952V36.6452C80.85 32.0889 77.1564 28.3952 72.6 28.3952Z" fill="white"/>
</g>
<g filter="url(#filter1_d_2_197)">
<path d="M216.15 137.295H189.75C185.194 137.295 181.5 140.989 181.5 145.545V163.695C181.5 168.252 185.194 171.945 189.75 171.945H216.15C220.706 171.945 224.4 168.252 224.4 163.695V145.545C224.4 140.989 220.706 137.295 216.15 137.295Z" fill="white"/>
</g>
<defs>
<filter id="filter0_d_2_197" x="25.95" y="18.3952" width="66.9" height="58.65" filterUnits="userSpaceOnUse" color-interpolation-filters="sRGB">
<feFlood flood-opacity="0" result="BackgroundImageFix"/>
<feColorMatrix in="SourceAlpha" type="matrix" values="0 0 0 0 0 0 0 0 0 0 0 0 0 0 0 0 0 0 127 0" result="hardAlpha"/>
<feOffset dy="2"/>
<feGaussianBlur stdDeviation="6"/>
<feColorMatrix type="matrix" values="0 0 0 0 0.0627451 0 0 0 0 0.152941 0 0 0 0 0.396078 0 0 0 0.11 0"/>
<feBlend mode="normal" in2="BackgroundImageFix" result="effect1_dropShadow_2_197"/>
<feBlend mode="normal" in="SourceGraphic" in2="effect1_dropShadow_2_197" result="shape"/>
</filter>
<filter id="filter1_d_2_197" x="169.5" y="127.295" width="66.9" height="58.65" filterUnits="userSpaceOnUse" color-interpolation-filters="sRGB">
<feFlood flood-opacity="0" result="BackgroundImageFix"/>
<feColorMatrix in="SourceAlpha" type="matrix" values="0 0 0 0 0 0 0 0 0 0 0 0 0 0 0 0 0 0 127 0" result="hardAlpha"/>
<feOffset dy="2"/>
<feGaussianBlur stdDeviation="6"/>
<feColorMatrix type="matrix" values="0 0 0 0 0.0627451 0 0 0 0 0.152941 0 0 0 0 0.396078 0 0 0 0.11 0"/>
<feBlend mode="normal" in2="BackgroundImageFix" result="effect1_dropShadow_2_197"/>
<feBlend mode="normal" in="SourceGraphic" in2="effect1_dropShadow_2_197" result="shape"/>
</filter>
</defs>
</svg>
