<svg width="500" height="500" viewBox="0 0 500 500" xmlns="http://www.w3.org/2000/svg"><path d="M177.602 267.5L322.296 267.5C331.99 267.5 339.847 259.643 339.847 249.949C339.847 240.255 331.99 232.5 322.296 232.5L177.602 232.5C167.908 232.5 160.051 240.357 160.051 249.949C160.051 259.541 167.908 267.5 177.602 267.5Z"/><path d="M73.1633 73.1633C26.0204 120.408 0 183.163 0 250C0 316.837 26.0204 379.592 73.2653 426.837C120.408 473.98 183.265 500 250 500C316.735 500 379.592 473.98 426.837 426.735C473.98 379.592 500 316.735 500 250C500 183.265 473.98 120.408 426.735 73.1633C379.592 26.0204 316.837 0 250 0C183.265 0 120.408 26.0204 73.1633 73.1633ZM465 250C465 307.449 442.653 361.429 402.041 402.041C361.429 442.653 307.449 465 250 465C192.551 465 138.571 442.653 97.9592 402.041C57.3469 361.429 35 307.449 35 250C35 192.551 57.3469 138.571 97.9592 97.9592C138.571 57.3469 192.551 35 250 35C307.449 35 361.429 57.3469 402.041 97.9592C442.653 138.571 465 192.551 465 250Z"/></svg>