<svg width="500" height="500" viewBox="0 0 500 500" xmlns="http://www.w3.org/2000/svg"><path d="M232.449 177.653V232.449H177.653C167.959 232.449 160.102 240.306 160.102 250C160.102 259.694 167.959 267.551 177.653 267.551H232.449V322.347C232.449 332.041 240.306 339.898 250 339.898C259.694 339.898 267.449 332.041 267.449 322.347V267.551H322.245C331.939 267.551 339.796 259.694 339.796 250C339.796 240.306 331.939 232.449 322.245 232.449H267.449V177.653C267.449 167.959 259.592 160.102 250 160.102C240.408 160.102 232.449 167.959 232.449 177.653Z"/><path d="M73.1633 73.1633C26.0204 120.408 0 183.163 0 250C0 316.837 26.0204 379.592 73.2653 426.837C120.408 473.98 183.265 500 250 500C316.735 500 379.592 473.98 426.837 426.735C473.98 379.592 500 316.735 500 250C500 183.265 473.98 120.408 426.735 73.1633C379.592 26.0204 316.837 0 250 0C183.265 0 120.408 26.0204 73.1633 73.1633ZM465 250C465 307.449 442.653 361.429 402.041 402.041C361.429 442.653 307.449 465 250 465C192.551 465 138.571 442.653 97.9592 402.041C57.3469 361.429 35 307.449 35 250C35 192.551 57.3469 138.571 97.9592 97.9592C138.571 57.3469 192.551 35 250 35C307.449 35 361.429 57.3469 402.041 97.9592C442.653 138.571 465 192.551 465 250Z"/></svg>