<svg width="0" height="0" class="hidden">
  <symbol xmlns="http://www.w3.org/2000/svg" viewBox="0 0 1200 1200" id="qrcode">
    <path d="M0 0V545.312H545.312V0H0ZM654.688 0V545.312H1200V0H654.688ZM108.594 108.594H436.719V436.719H108.594V108.594ZM763.281 108.594H1091.41V436.719H763.281V108.594ZM217.969 219.531V328.125H328.125V219.531H217.969ZM871.875 219.531V328.125H980.469V219.531H871.875ZM0 654.688V1200H545.312V654.688H0ZM654.688 654.688V1200H763.283V873.438H871.877V982.033H1200V654.688H1091.41V763.283H980.469V654.688H654.688ZM108.594 763.281H436.719V1091.41H108.594V763.281ZM217.969 871.875V982.031H328.125V871.875H217.969ZM871.875 1091.41V1200H980.469V1091.41H871.875ZM1091.41 1091.41V1200H1200V1091.41H1091.41Z"></path>
  </symbol>
  <symbol xmlns="http://www.w3.org/2000/svg" viewBox="0 0 100 100" id="warning">
    <path d="M49.9995 72.3402C44.5152 72.3402 40.0703 67.8962 40.0703 62.411V9.92917C40.0703 4.44587 44.5162 0 49.9995 0C55.4818 0 59.9287 4.44587 59.9287 9.92917V62.411C59.9296 67.8962 55.4837 72.3402 49.9995 72.3402Z"></path>
    <path d="M49.3629 100C54.0632 100 57.8736 96.1896 57.8736 91.4893C57.8736 86.789 54.0632 82.9786 49.3629 82.9786C44.6625 82.9786 40.8522 86.789 40.8522 91.4893C40.8522 96.1896 44.6625 100 49.3629 100Z"></path>
  </symbol>
  <symbol xmlns="http://www.w3.org/2000/svg" viewBox="0 0 500 500" id="minus">
    <path d="M177.602 267.5L322.296 267.5C331.99 267.5 339.847 259.643 339.847 249.949C339.847 240.255 331.99 232.5 322.296 232.5L177.602 232.5C167.908 232.5 160.051 240.357 160.051 249.949C160.051 259.541 167.908 267.5 177.602 267.5Z"></path>
    <path d="M73.1633 73.1633C26.0204 120.408 0 183.163 0 250C0 316.837 26.0204 379.592 73.2653 426.837C120.408 473.98 183.265 500 250 500C316.735 500 379.592 473.98 426.837 426.735C473.98 379.592 500 316.735 500 250C500 183.265 473.98 120.408 426.735 73.1633C379.592 26.0204 316.837 0 250 0C183.265 0 120.408 26.0204 73.1633 73.1633ZM465 250C465 307.449 442.653 361.429 402.041 402.041C361.429 442.653 307.449 465 250 465C192.551 465 138.571 442.653 97.9592 402.041C57.3469 361.429 35 307.449 35 250C35 192.551 57.3469 138.571 97.9592 97.9592C138.571 57.3469 192.551 35 250 35C307.449 35 361.429 57.3469 402.041 97.9592C442.653 138.571 465 192.551 465 250Z"></path>
  </symbol>
  <symbol xmlns="http://www.w3.org/2000/svg" viewBox="0 0 500 500" id="plus">
    <path d="M232.449 177.653V232.449H177.653C167.959 232.449 160.102 240.306 160.102 250C160.102 259.694 167.959 267.551 177.653 267.551H232.449V322.347C232.449 332.041 240.306 339.898 250 339.898C259.694 339.898 267.449 332.041 267.449 322.347V267.551H322.245C331.939 267.551 339.796 259.694 339.796 250C339.796 240.306 331.939 232.449 322.245 232.449H267.449V177.653C267.449 167.959 259.592 160.102 250 160.102C240.408 160.102 232.449 167.959 232.449 177.653Z"></path>
    <path d="M73.1633 73.1633C26.0204 120.408 0 183.163 0 250C0 316.837 26.0204 379.592 73.2653 426.837C120.408 473.98 183.265 500 250 500C316.735 500 379.592 473.98 426.837 426.735C473.98 379.592 500 316.735 500 250C500 183.265 473.98 120.408 426.735 73.1633C379.592 26.0204 316.837 0 250 0C183.265 0 120.408 26.0204 73.1633 73.1633ZM465 250C465 307.449 442.653 361.429 402.041 402.041C361.429 442.653 307.449 465 250 465C192.551 465 138.571 442.653 97.9592 402.041C57.3469 361.429 35 307.449 35 250C35 192.551 57.3469 138.571 97.9592 97.9592C138.571 57.3469 192.551 35 250 35C307.449 35 361.429 57.3469 402.041 97.9592C442.653 138.571 465 192.551 465 250Z"></path>
  </symbol>
</svg>